<?xml version="1.0" encoding="iso-8859-1"?>
<!-- Uploaded to: SVG Repo, www.svgrepo.com, Generator: SVG Repo Mixer Tools -->
<svg height="800px" width="800px" version="1.1" id="Layer_1" xmlns="http://www.w3.org/2000/svg" xmlns:xlink="http://www.w3.org/1999/xlink" 
	 viewBox="0 0 512 512" xml:space="preserve">
<polygon style="fill:#F7C02D;" points="256,0 235.085,299.824 256,512 463.15,512 463.15,234.767 493.439,234.767 "/>
<polygon style="fill:#FBE27B;" points="18.561,234.767 48.85,234.767 48.85,512 256,512 256,0 "/>
<path style="fill:#288FD9;" d="M256,387.641l102.63-113.087c-7.84-22.706-20.617-42.64-34.551-59.34L256,272.836l-20.915,50.037
	L256,387.641z"/>
<path style="fill:#8BCBF1;" d="M256,272.836l-68.079-57.622c-13.934,16.699-26.711,36.633-34.551,59.34L256,387.641V272.836z"/>
<g>
	<path style="fill:#0079CE;" d="M324.079,215.214C292.903,177.852,256,156.651,256,156.651l-20.915,60.34L256,283.294
		L324.079,215.214z"/>
	<path style="fill:#0079CE;" d="M256,377.184l-20.915,24.405L256,431.76c61.091,0,110.616-49.524,110.616-110.616
		c0-16.58-2.998-32.144-7.986-46.591L256,377.184z"/>
</g>
<g>
	<path style="fill:#288FD9;" d="M256,156.651c0,0-36.903,21.201-68.079,58.563L256,283.294V156.651z"/>
	<path style="fill:#288FD9;" d="M153.37,274.553c-4.988,14.447-7.986,30.01-7.986,46.591c0,61.091,49.524,110.616,110.616,110.616
		v-54.576L153.37,274.553z"/>
</g>
</svg>